<svg aria-hidden="true" style="position: absolute; width: 0; height: 0; overflow: hidden;" version="1.1"
    xmlns="http://www.w3.org/2000/svg" xmlns:xlink="http://www.w3.org/1999/xlink">
    <defs>
        <symbol id="header-mobile-close-menu-icon" viewBox="0 0 32 32">
            <path stroke-linejoin="round" stroke-linecap="round" stroke-miterlimit="4" stroke-width="1.7333"
                d="M24 8l-16 16"></path>
            <path stroke-linejoin="round" stroke-linecap="round" stroke-miterlimit="4" stroke-width="1.7333"
                d="M8 8l16 16"></path>
        </symbol>
        <symbol id="header-mobile-open-menu-icon" viewBox="0 0 32 32">
            <path
                d="M2.667 7.993c0-0.733 0.595-1.327 1.327-1.327h10.68c0.352 0 0.689 0.14 0.938 0.389s0.389 0.586 0.389 0.938c0 0.352-0.14 0.689-0.389 0.938s-0.586 0.389-0.938 0.389h-10.68c-0.352 0-0.689-0.14-0.938-0.389s-0.389-0.586-0.389-0.938zM2.667 16c0-0.733 0.595-1.327 1.327-1.327h24.013c0.352 0 0.689 0.14 0.938 0.389s0.389 0.586 0.389 0.938c0 0.352-0.14 0.689-0.389 0.938s-0.586 0.389-0.938 0.389h-24.013c-0.352 0-0.689-0.14-0.938-0.389s-0.389-0.586-0.389-0.938zM3.993 22.68c-0.352 0-0.689 0.14-0.938 0.389s-0.389 0.586-0.389 0.938c0 0.352 0.14 0.689 0.389 0.938s0.586 0.389 0.938 0.389h16.013c0.352 0 0.689-0.14 0.938-0.389s0.389-0.586 0.389-0.938c0-0.352-0.14-0.689-0.389-0.938s-0.586-0.389-0.938-0.389h-16.013z">
            </path>
        </symbol>
        <symbol id="logo-boat-icon" viewBox="0 0 28 32">
            <path fill="#bec7c2" style="fill: var(--color2, #bec7c2)"
                d="M13.109 0h0.195c0.477 0 0.864 0.387 0.864 0.864v0 20.966h-1.922v-20.966c0-0.477 0.387-0.864 0.864-0.864v0z">
            </path>
            <path fill="#bec7c2" style="fill: var(--color2, #bec7c2)"
                d="M10.281 8.832v10.156h-8.261c-0.432 0-0.655-0.794-0.306-1.045 3.464-2.431 6.327-5.468 8.493-8.98l0.075-0.131z">
            </path>
            <path fill="#bec7c2" style="fill: var(--color2, #bec7c2)"
                d="M16.091 3.706v14.725c0.929-0.123 2.004-0.193 3.095-0.193 1.9 0 3.75 0.212 5.528 0.615l-0.167-0.032c0.011 0.001 0.024 0.001 0.036 0.001 0.408 0 0.738-0.331 0.738-0.738 0-0.040-0.003-0.079-0.009-0.117l0.001 0.004c-0.858-6.040-4.295-11.138-9.141-14.217l-0.082-0.049z">
            </path>
            <path fill="#bec7c2" style="fill: var(--color2, #bec7c2)" d="M0.028 23.739h27.835v1.797h-27.835v-1.797z">
            </path>
            <path fill="#bec7c2" style="fill: var(--color2, #bec7c2)"
                d="M0 27.417c0.488 0.85 0.947 1.741 1.393 2.675 0.456 0.839 1.204 1.47 2.105 1.762l0.026 0.007 0.376 0.139h15.687c3.126-0.541 5.79-2.206 7.614-4.556l0.021-0.028s-27.222 0.070-27.222 0z">
            </path>
        </symbol>
    </defs>
</svg>