<svg xmlns="http://www.w3.org/2000/svg" viewBox="0 0 20 22.97"><defs><style>.cls-1{fill:#bec7c2;}</style></defs><g id="Слой_2" data-name="Слой 2"><g id="Слой_1-2" data-name="Слой 1"><path class="cls-1" d="M9.41,0h.14a.62.62,0,0,1,.62.62V15.67a0,0,0,0,1,0,0H8.79a0,0,0,0,1,0,0V.62A.62.62,0,0,1,9.41,0Z"/><path class="cls-1" d="M7.38,6.34v7.29H1.45c-.31,0-.47-.57-.22-.75A21.72,21.72,0,0,0,7.38,6.34Z"/><path class="cls-1" d="M11.55,2.66V13.23a17.91,17.91,0,0,1,6.07.28.53.53,0,0,0,.55-.61A14.42,14.42,0,0,0,11.55,2.66Z"/><rect class="cls-1" x="0.02" y="17.04" width="19.98" height="1.29"/><path class="cls-1" d="M0,19.68c.35.61.68,1.25,1,1.92a2.64,2.64,0,0,0,1.53,1.27l.27.1H14.06a8.76,8.76,0,0,0,5.48-3.29S0,19.73,0,19.68Z"/></g></g></svg>