<svg aria-hidden="true" style="position:absolute;width:0;height:0;overflow:hidden" xmlns="http://www.w3.org/2000/svg">
  <defs>
    <symbol id="fontisto_yacht" viewBox="0 0 32 32">
      <path d="M0 0h32v32H0V0z"/>
    </symbol>
    <symbol id="u_facebook-f" viewBox="0 0 32 32">
      <path d="M18.425 10.801h1.462V8.328a20.221 20.221 0 0 0-2.131-.109c-2.116 0-3.562 1.291-3.562 3.656v2.038h-2.388v2.769h2.388v7.093h2.862v-7.093h2.38l.358-2.769h-2.738v-1.766c0-.817.218-1.346 1.369-1.346z"/>
      <path stroke-width=".8" d="M4.8.4h22.4a4.4 4.4 0 0 1 4.4 4.4v22.4a4.4 4.4 0 0 1-4.4 4.4H4.8a4.4 4.4 0 0 1-4.4-4.4V4.8A4.4 4.4 0 0 1 4.8.4z"/>
    </symbol>
    <symbol id="u_instagram" viewBox="0 0 32 32">
      <path d="M19.991 11.115a.902.902 0 0 0-.828.553.892.892 0 0 0 .194.977.892.892 0 0 0 .977.194.895.895 0 0 0-.343-1.724zm3.435 1.807a5.646 5.646 0 0 0-.343-1.814 3.69 3.69 0 0 0-.866-1.322 3.518 3.518 0 0 0-1.322-.859 5.462 5.462 0 0 0-1.814-.351c-.791-.045-1.045-.045-3.076-.045s-2.285 0-3.076.045a5.462 5.462 0 0 0-1.814.351 3.57 3.57 0 0 0-1.322.859c-.383.37-.676.822-.859 1.322a5.462 5.462 0 0 0-.351 1.814c-.045.791-.045 1.045-.045 3.076s0 2.285.045 3.076c.013.62.132 1.234.351 1.814.182.5.476.952.859 1.322a3.57 3.57 0 0 0 1.322.859c.58.219 1.194.338 1.814.351.791.045 1.045.045 3.076.045s2.285 0 3.076-.045a5.462 5.462 0 0 0 1.814-.351c.5-.182.952-.476 1.322-.859.382-.371.678-.823.866-1.322a5.65 5.65 0 0 0 .343-1.814c0-.791.045-1.045.045-3.076s0-2.285-.045-3.076zm-1.344 6.063a4.167 4.167 0 0 1-.254 1.389 2.286 2.286 0 0 1-.56.859 2.373 2.373 0 0 1-.859.56 4.193 4.193 0 0 1-1.389.254c-.747.037-1.023.045-2.987.045s-2.24 0-2.987-.045a4.3 4.3 0 0 1-1.449-.224 2.433 2.433 0 0 1-.821-.56 2.245 2.245 0 0 1-.553-.859 4.164 4.164 0 0 1-.299-1.419c0-.747-.045-1.023-.045-2.987s0-2.24.045-2.987a4.14 4.14 0 0 1 .261-1.419 2.24 2.24 0 0 1 .59-.821c.227-.257.507-.461.821-.597a4.29 4.29 0 0 1 1.419-.254c.747 0 1.023-.045 2.987-.045s2.24 0 2.987.045c.474.005.944.091 1.389.254.339.126.644.331.889.597.245.229.436.51.56.821.166.455.252.935.254 1.419.037.747.045 1.023.045 2.987s-.007 2.24-.045 2.987zm-6.078-6.817a3.826 3.826 0 0 0-3.534 2.37 3.824 3.824 0 0 0 .835 4.171 3.83 3.83 0 0 0 6.246-4.18 3.831 3.831 0 0 0-3.547-2.362zm0 6.316a2.487 2.487 0 1 1 .003-4.975 2.487 2.487 0 0 1-.004 4.976z"/>
      <path stroke-width=".8" d="M4.8.4h22.4a4.4 4.4 0 0 1 4.4 4.4v22.4a4.4 4.4 0 0 1-4.4 4.4H4.8a4.4 4.4 0 0 1-4.4-4.4V4.8A4.4 4.4 0 0 1 4.8.4z"/>
    </symbol>
    <symbol id="u_instagram-1" viewBox="0 0 32 32">
      <path d="M20.532 10.5c-.748-.044-2.288-.088-4.62-.088h-.308c-2.244 0-3.74.044-4.488.132-1.012.088-1.716.352-2.112.704-.352.308-.616.88-.704 1.628-.044.484-.088 1.496-.088 3.036v.22c0 1.452.044 2.464.132 2.948.132.704.352 1.232.792 1.54.44.352 1.188.572 2.244.66.748.044 2.288.088 4.62.088h.308c2.244 0 3.74-.044 4.488-.132 1.012-.088 1.716-.352 2.112-.704.352-.308.616-.88.704-1.628.044-.484.088-1.496.088-3.036v-.22c0-1.452-.044-2.464-.132-2.948-.132-.704-.352-1.232-.792-1.54-.44-.352-1.188-.572-2.244-.66zm-1.716 5.412-4.84 2.904v-5.808l4.84 2.904z"/>
      <path stroke-width=".8" d="M4.8.4h22.4a4.4 4.4 0 0 1 4.4 4.4v22.4a4.4 4.4 0 0 1-4.4 4.4H4.8a4.4 4.4 0 0 1-4.4-4.4V4.8A4.4 4.4 0 0 1 4.8.4z"/>
    </symbol>
     <symbol id="boatlogo_footer" viewBox="0 0 28 32">
      <path fill="#bec7c2" style="fill:var(--color1, #bec7c2)" d="M13.109 0h.195c.477 0 .864.387.864.864V21.83h-1.922V.864c0-.477.387-.864.864-.864zM10.281 8.832v10.156H2.02c-.432 0-.655-.794-.306-1.045 3.464-2.431 6.327-5.468 8.493-8.98l.075-.131zM16.091 3.706v14.725a24.12 24.12 0 0 1 3.095-.193c1.9 0 3.75.212 5.528.615l-.167-.032.036.001a.738.738 0 0 0 .729-.855l.001.004c-.858-6.04-4.295-11.138-9.141-14.217l-.082-.049zM.028 23.739h27.835v1.797H.028v-1.797zM0 27.417c.488.85.947 1.741 1.393 2.675a3.695 3.695 0 0 0 2.105 1.762l.026.007L3.9 32h15.687a12.23 12.23 0 0 0 7.614-4.556l.021-.028S0 27.486 0 27.416z"/>
    </symbol>
    <symbol id="ytube" viewBox="0 0 32 32">
<path d="M24.24 6c-1.36-0.080-4.16-0.16-8.4-0.16h-0.56c-4.080 0-6.8 0.080-8.16 0.24-1.84 0.16-3.12 0.64-3.84 1.28-0.64 0.56-1.12 1.6-1.28 2.96-0.080 0.88-0.16 2.72-0.16 5.52v0.4c0 2.64 0.080 4.48 0.24 5.36 0.24 1.28 0.64 2.24 1.44 2.8 0.8 0.64 2.16 1.040 4.080 1.2 1.36 0.080 4.16 0.16 8.4 0.16h0.56c4.080 0 6.8-0.080 8.16-0.24 1.84-0.16 3.12-0.64 3.84-1.28 0.64-0.56 1.12-1.6 1.28-2.96 0.080-0.88 0.16-2.72 0.16-5.52v-0.4c0-2.64-0.080-4.48-0.24-5.36-0.24-1.28-0.64-2.24-1.44-2.8-0.8-0.64-2.16-1.040-4.080-1.2zM21.12 15.839l-8.8 5.28v-10.56l8.8 5.28z"></path>
</symbol>
  <symbol id="u_facebook-f2" viewBox="0 0 32 32">
      <path fill="#f6f5ef" style="fill:var(--color1, #f6f5ef)" d="M18.425 10.801h1.462V8.328a20.221 20.221 0 0 0-2.131-.109c-2.116 0-3.562 1.291-3.562 3.656v2.038h-2.388v2.769h2.388v7.093h2.862v-7.093h2.38l.358-2.769h-2.738v-1.766c0-.817.218-1.346 1.369-1.346z"/>
      <path fill="none" stroke="#f6f5ef" style="stroke:var(--color1, #f6f5ef)" stroke-width=".8" d="M4.8.4h22.4a4.4 4.4 0 0 1 4.4 4.4v22.4a4.4 4.4 0 0 1-4.4 4.4H4.8a4.4 4.4 0 0 1-4.4-4.4V4.8A4.4 4.4 0 0 1 4.8.4z"/>
    </symbol>
    <symbol id="fbletter3" viewBox="0 0 18 32">
<path fill="#f6f5ef" style="fill: var(--color1, #f6f5ef)" d="M14.45 5.602h2.924v-4.947c-1.416-0.147-2.839-0.22-4.262-0.218-4.231 0-7.124 2.582-7.124 7.311v4.076h-4.776v5.538h4.776v14.187h5.724v-14.187h4.76l0.716-5.538h-5.476v-3.531c0-1.633 0.436-2.691 2.738-2.691z"></path>
</symbol>
<symbol id="fb3green" viewBox="0 0 11 20">
  <path d="M9.03143 3.50125H10.8592V0.409578C9.97424 0.317554 9.08505 0.272121 8.19531 0.273467C5.55087 0.273467 3.74254 1.88736 3.74254 4.84291V7.39013H0.757812V10.8512H3.74254V19.7179H7.32031V10.8512H10.2953L10.7425 7.39013H7.32031V5.18319C7.32031 4.16236 7.59254 3.50125 9.03143 3.50125Z"/>
</symbol>
    <symbol id="u_instagram2" viewBox="0 0 32 32">
      <path fill="#f6f5ef" style="fill:var(--color1, #f6f5ef)" d="M19.991 11.115a.902.902 0 0 0-.828.553.892.892 0 0 0 .194.977.892.892 0 0 0 .977.194.895.895 0 0 0-.343-1.724zm3.435 1.807a5.646 5.646 0 0 0-.343-1.814 3.69 3.69 0 0 0-.866-1.322 3.518 3.518 0 0 0-1.322-.859 5.462 5.462 0 0 0-1.814-.351c-.791-.045-1.045-.045-3.076-.045s-2.285 0-3.076.045a5.462 5.462 0 0 0-1.814.351 3.57 3.57 0 0 0-1.322.859c-.383.37-.676.822-.859 1.322a5.462 5.462 0 0 0-.351 1.814c-.045.791-.045 1.045-.045 3.076s0 2.285.045 3.076c.013.62.132 1.234.351 1.814.182.5.476.952.859 1.322a3.57 3.57 0 0 0 1.322.859c.58.219 1.194.338 1.814.351.791.045 1.045.045 3.076.045s2.285 0 3.076-.045a5.462 5.462 0 0 0 1.814-.351c.5-.182.952-.476 1.322-.859.382-.371.678-.823.866-1.322a5.65 5.65 0 0 0 .343-1.814c0-.791.045-1.045.045-3.076s0-2.285-.045-3.076zm-1.344 6.063a4.167 4.167 0 0 1-.254 1.389 2.286 2.286 0 0 1-.56.859 2.373 2.373 0 0 1-.859.56 4.193 4.193 0 0 1-1.389.254c-.747.037-1.023.045-2.987.045s-2.24 0-2.987-.045a4.3 4.3 0 0 1-1.449-.224 2.433 2.433 0 0 1-.821-.56 2.245 2.245 0 0 1-.553-.859 4.164 4.164 0 0 1-.299-1.419c0-.747-.045-1.023-.045-2.987s0-2.24.045-2.987a4.14 4.14 0 0 1 .261-1.419 2.24 2.24 0 0 1 .59-.821c.227-.257.507-.461.821-.597a4.29 4.29 0 0 1 1.419-.254c.747 0 1.023-.045 2.987-.045s2.24 0 2.987.045c.474.005.944.091 1.389.254.339.126.644.331.889.597.245.229.436.51.56.821.166.455.252.935.254 1.419.037.747.045 1.023.045 2.987s-.007 2.24-.045 2.987zm-6.078-6.817a3.826 3.826 0 0 0-3.534 2.37 3.824 3.824 0 0 0 .835 4.171 3.83 3.83 0 0 0 6.246-4.18 3.831 3.831 0 0 0-3.547-2.362zm0 6.316a2.487 2.487 0 1 1 .003-4.975 2.487 2.487 0 0 1-.004 4.976z"/>
      <path fill="none" stroke="#f6f5ef" style="stroke:var(--color1, #f6f5ef)" stroke-width=".8" d="M4.8.4h22.4a4.4 4.4 0 0 1 4.4 4.4v22.4a4.4 4.4 0 0 1-4.4 4.4H4.8a4.4 4.4 0 0 1-4.4-4.4V4.8A4.4 4.4 0 0 1 4.8.4z"/>
    </symbol>
    <symbol id="insta3" viewBox="0 0 20 20">
      <path d="M14.9892 3.8934C14.7677 3.8934 14.5512 3.95908 14.367 4.08215C14.1828 4.20522 14.0392 4.38014 13.9545 4.58479C13.8697 4.78944 13.8475 5.01464 13.8907 5.2319C13.9339 5.44916 14.0406 5.64872 14.1973 5.80536C14.3539 5.96199 14.5535 6.06866 14.7707 6.11188C14.988 6.15509 15.2132 6.13291 15.4178 6.04814C15.6225 5.96337 15.7974 5.81982 15.9205 5.63564C16.0435 5.45145 16.1092 5.23491 16.1092 5.0134C16.1092 4.71635 15.9912 4.43148 15.7812 4.22144C15.5711 4.0114 15.2863 3.8934 14.9892 3.8934ZM19.2825 6.15206C19.2644 5.37768 19.1194 4.61151 18.8532 3.88406C18.6159 3.26165 18.2465 2.69806 17.7705 2.23206C17.3084 1.75366 16.7435 1.38663 16.1185 1.15873C15.393 0.884479 14.626 0.736125 13.8505 0.720062C12.8612 0.664062 12.5439 0.664062 10.0052 0.664062C7.46654 0.664062 7.14921 0.664062 6.15988 0.720062C5.38442 0.736125 4.6174 0.884479 3.89188 1.15873C3.26811 1.38893 2.70368 1.75565 2.23988 2.23206C1.76147 2.69423 1.39444 3.25914 1.16654 3.88406C0.892292 4.60958 0.743938 5.37661 0.727875 6.15206C0.671875 7.1414 0.671875 7.45873 0.671875 9.9974C0.671875 12.5361 0.671875 12.8534 0.727875 13.8427C0.743938 14.6182 0.892292 15.3852 1.16654 16.1107C1.39444 16.7357 1.76147 17.3006 2.23988 17.7627C2.70368 18.2391 3.26811 18.6059 3.89188 18.8361C4.6174 19.1103 5.38442 19.2587 6.15988 19.2747C7.14921 19.3307 7.46654 19.3307 10.0052 19.3307C12.5439 19.3307 12.8612 19.3307 13.8505 19.2747C14.626 19.2587 15.393 19.1103 16.1185 18.8361C16.7435 18.6082 17.3084 18.2411 17.7705 17.7627C18.2486 17.2985 18.6183 16.7344 18.8532 16.1107C19.1194 15.3833 19.2644 14.6171 19.2825 13.8427C19.2825 12.8534 19.3385 12.5361 19.3385 9.9974C19.3385 7.45873 19.3385 7.1414 19.2825 6.15206ZM17.6025 13.7307C17.5957 14.3232 17.4884 14.9102 17.2852 15.4667C17.1362 15.8729 16.8968 16.2399 16.5852 16.5401C16.2825 16.8485 15.9162 17.0874 15.5119 17.2401C14.9553 17.4433 14.3683 17.5506 13.7759 17.5574C12.8425 17.6041 12.4972 17.6134 10.0425 17.6134C7.58788 17.6134 7.24254 17.6134 6.30921 17.5574C5.69404 17.5689 5.0815 17.4742 4.49854 17.2774C4.11194 17.1169 3.76247 16.8787 3.47188 16.5774C3.16209 16.2776 2.92573 15.9102 2.78121 15.5041C2.55334 14.9395 2.42696 14.3392 2.40788 13.7307C2.40788 12.7974 2.35188 12.4521 2.35188 9.9974C2.35188 7.54273 2.35188 7.1974 2.40788 6.26406C2.41206 5.65838 2.52263 5.05815 2.73454 4.49073C2.89885 4.09678 3.15106 3.74561 3.47188 3.46406C3.75543 3.14315 4.10588 2.88829 4.49854 2.7174C5.06746 2.5121 5.66707 2.4048 6.27188 2.40006C7.20521 2.40006 7.55054 2.34406 10.0052 2.34406C12.4599 2.34406 12.8052 2.34406 13.7385 2.40006C14.331 2.40686 14.918 2.51416 15.4745 2.7174C15.8987 2.8748 16.2794 3.13072 16.5852 3.46406C16.8911 3.75076 17.1301 4.10128 17.2852 4.49073C17.4926 5.05907 17.6 5.65906 17.6025 6.26406C17.6492 7.1974 17.6585 7.54273 17.6585 9.9974C17.6585 12.4521 17.6492 12.7974 17.6025 13.7307ZM10.0052 5.2094C9.05863 5.21124 8.13384 5.49362 7.34769 6.02085C6.56153 6.54809 5.9493 7.29651 5.58833 8.17157C5.22737 9.04662 5.13388 10.009 5.31968 10.9372C5.50548 11.8654 5.96223 12.7176 6.63221 13.3863C7.3022 14.055 8.15535 14.5101 9.08388 14.6941C10.0124 14.8781 10.9746 14.7827 11.849 14.42C12.7233 14.0574 13.4706 13.4437 13.9963 12.6565C14.522 11.8693 14.8025 10.944 14.8025 9.9974C14.8038 9.3675 14.6805 8.74356 14.4397 8.16149C14.1989 7.57942 13.8455 7.05069 13.3996 6.60571C12.9538 6.16074 12.4244 5.8083 11.8418 5.56866C11.2593 5.32903 10.6351 5.20693 10.0052 5.2094ZM10.0052 13.1054C9.39051 13.1054 8.78961 12.9231 8.2785 12.5816C7.76739 12.2401 7.36903 11.7547 7.13379 11.1868C6.89855 10.6189 6.83701 9.99395 6.95693 9.39106C7.07685 8.78816 7.37286 8.23437 7.80752 7.79971C8.24218 7.36505 8.79598 7.06904 9.39887 6.94912C10.0018 6.82919 10.6267 6.89074 11.1946 7.12598C11.7625 7.36122 12.2479 7.75958 12.5894 8.27068C12.9309 8.78179 13.1132 9.38269 13.1132 9.9974C13.1132 10.4055 13.0328 10.8097 12.8766 11.1868C12.7204 11.5639 12.4915 11.9065 12.2029 12.1951C11.9143 12.4837 11.5717 12.7126 11.1946 12.8688C10.8175 13.025 10.4134 13.1054 10.0052 13.1054Z"/>
    </symbol>
<symbol id="youtube3" viewBox="0 0 20 14">
<path d="M15.665 0.124892C14.73 0.0698925 12.805 0.0148926 9.89002 0.0148926H9.50501C6.70001 0.0148926 4.83004 0.0698924 3.89504 0.179892C2.63004 0.289892 1.75001 0.619892 1.25501 1.05989C0.815008 1.44489 0.485021 2.15989 0.375021 3.09489C0.320021 3.69989 0.265015 4.96489 0.265015 6.88989V7.16489C0.265015 8.97989 0.320008 10.2449 0.430008 10.8499C0.595008 11.7299 0.870035 12.3899 1.42003 12.7749C1.97004 13.2149 2.90502 13.4899 4.22502 13.5999C5.16002 13.6549 7.08502 13.7099 10 13.7099H10.385C13.19 13.7099 15.06 13.6549 15.995 13.5449C17.26 13.4349 18.14 13.1049 18.635 12.6649C19.075 12.2799 19.405 11.5649 19.515 10.6299C19.57 10.0249 19.625 8.75989 19.625 6.83489V6.55989C19.625 4.74489 19.57 3.47989 19.46 2.87489C19.295 1.99489 19.02 1.33489 18.47 0.949892C17.92 0.509892 16.985 0.234892 15.665 0.124892ZM13.52 6.88989L7.47004 10.5199V3.25989L13.52 6.88989Z"/>
</symbol>
    <symbol id="youtube2" viewBox="0 0 32 32">
      <path fill="#f6f5ef" style="fill:var(--color1, #f6f5ef)" d="M20.532 10.5c-.748-.044-2.288-.088-4.62-.088h-.308c-2.244 0-3.74.044-4.488.132-1.012.088-1.716.352-2.112.704-.352.308-.616.88-.704 1.628-.044.484-.088 1.496-.088 3.036v.22c0 1.452.044 2.464.132 2.948.132.704.352 1.232.792 1.54.44.352 1.188.572 2.244.66.748.044 2.288.088 4.62.088h.308c2.244 0 3.74-.044 4.488-.132 1.012-.088 1.716-.352 2.112-.704.352-.308.616-.88.704-1.628.044-.484.088-1.496.088-3.036v-.22c0-1.452-.044-2.464-.132-2.948-.132-.704-.352-1.232-.792-1.54-.44-.352-1.188-.572-2.244-.66zm-1.716 5.412-4.84 2.904v-5.808l4.84 2.904z"/>
      <path fill="none" stroke="#f6f5ef" style="stroke:var(--color1, #f6f5ef)" stroke-width=".8" d="M4.8.4h22.4a4.4 4.4 0 0 1 4.4 4.4v22.4a4.4 4.4 0 0 1-4.4 4.4H4.8a4.4 4.4 0 0 1-4.4-4.4V4.8A4.4 4.4 0 0 1 4.8.4z"/>
    </symbol>
    <symbol id="yachticon" xmlns="http://www.w3.org/2000/svg" viewBox="0 0 24 24">
    <path
        d="M2 5.995C2 5.445 2.446 5 2.995 5H11.005C11.2689 5 11.522 5.10483 11.7086 5.29143C11.8952 5.47803 12 5.73111 12 5.995C12 6.25889 11.8952 6.51197 11.7086 6.69857C11.522 6.88517 11.2689 6.99 11.005 6.99H2.995C2.73111 6.99 2.47803 6.88517 2.29143 6.69857C2.10483 6.51197 2 6.25889 2 5.995ZM2 12C2 11.45 2.446 11.005 2.995 11.005H21.005C21.2689 11.005 21.522 11.1098 21.7086 11.2964C21.8952 11.483 22 11.7361 22 12C22 12.2639 21.8952 12.517 21.7086 12.7036C21.522 12.8902 21.2689 12.995 21.005 12.995H2.995C2.73111 12.995 2.47803 12.8902 2.29143 12.7036C2.10483 12.517 2 12.2639 2 12ZM2.995 17.01C2.73111 17.01 2.47803 17.1148 2.29143 17.3014C2.10483 17.488 2 17.7411 2 18.005C2 18.2689 2.10483 18.522 2.29143 18.7086C2.47803 18.8952 2.73111 19 2.995 19H15.005C15.2689 19 15.522 18.8952 15.7086 18.7086C15.8952 18.522 16 18.2689 16 18.005C16 17.7411 15.8952 17.488 15.7086 17.3014C15.522 17.1148 15.2689 17.01 15.005 17.01H2.995Z" />
</symbol>
<symbol id="yachticonmob" xmlns="http://www.w3.org/2000/svg" viewBox="0 0 24 24">
    <path d="M18 6L6 18" stroke-width="1.3" stroke-linecap="round" stroke-linejoin="round" />
    <path d="M6 6L18 18" stroke-width="1.3" stroke-linecap="round" stroke-linejoin="round" />
</symbol>
   <symbol id="logo" width="23" height="23" viewBox="0 0 23 23"> 
   <mask id="mask0_3500_27" style="mask-type:alpha" maskUnits="userSpaceOnUse" x="0" y="0" width="23" height="23">
<path d="M0 18.4153L5.18842 23H20.4087L22.5879 19.9381L0.00191667 18.4153H0ZM13.4023 0V18.2783L20.4068 18.7603L13.4023 0ZM12.4478 3.08008L2.32779 17.481L12.4478 18.1642V3.08008Z" fill="black"/>
</mask>
<g mask="url(#mask0_3500_27)">
<path d="M0 0H23V23H0V0Z" fill="url(#paint0_linear_3500_27)"/>
</g>
<defs>
<linearGradient id="paint0_linear_3500_27" x1="9.79396" y1="3.48665e-06" x2="21.5409" y2="0.444325" gradientUnits="userSpaceOnUse">
<stop stop-color="#BEC7C2"/>
<stop offset="1" stop-color="#A1B5BA"/>
</linearGradient>
</defs>
   </symbol>
   <symbol id="Ellipsemobile" viewBox="0 0 41 32">
      <path d="M42.271 28.7c8.956 9.019 9.058 23.742.229 32.885s-23.247 9.243-32.202.224c-8.956-9.019-9.058-23.742-.229-32.885s23.247-9.243 32.202-.224z"/>
    </symbol>
   <symbol id="Ellipseleft" viewBox="0 0 107 32">
<path d="M0 0h32v32h-32v-32z"></path>
</symbol>
<symbol id="Ellipseright" viewBox="0 0 105 32">
<path d="M0 0h32v32h-32v-32z"></path>
</symbol>
</defs>
</svg>