<svg width="40" height="40" viewBox="0 0 40 40" fill="none" xmlns="http://www.w3.org/2000/svg">
<path fill-rule="evenodd" clip-rule="evenodd" d="M25.665 13.1246C24.73 13.0696 22.805 13.0146 19.89 13.0146H19.505C16.7 13.0146 14.83 13.0696 13.895 13.1796C12.63 13.2896 11.75 13.6196 11.255 14.0596C10.815 14.4446 10.485 15.1596 10.375 16.0946C10.32 16.6996 10.265 17.9646 10.265 19.8896V20.1646C10.265 21.9796 10.32 23.2446 10.43 23.8496C10.595 24.7296 10.87 25.3896 11.42 25.7746C11.97 26.2146 12.905 26.4896 14.225 26.5996C15.16 26.6546 17.085 26.7097 20 26.7097H20.385C23.19 26.7097 25.06 26.6546 25.995 26.5446C27.26 26.4346 28.14 26.1046 28.635 25.6646C29.075 25.2796 29.405 24.5646 29.515 23.6296C29.57 23.0246 29.625 21.7596 29.625 19.8346V19.5596C29.625 17.7446 29.57 16.4796 29.46 15.8746C29.295 14.9946 29.02 14.3346 28.47 13.9496C27.92 13.5096 26.985 13.2346 25.665 13.1246ZM23.52 19.8896L17.47 23.5196V16.2596L23.52 19.8896Z" fill="#F6F5EF"/>
<rect x="0.5" y="0.5" width="39" height="39" rx="5.5" stroke="#F6F5EF" stroke-opacity="0.5"/>
</svg>
