<svg width="20" height="14" viewBox="0 0 20 14" fill="none" xmlns="http://www.w3.org/2000/svg">
<path fill-rule="evenodd" clip-rule="evenodd" d="M15.665 0.124892C14.73 0.0698925 12.805 0.0148926 9.89002 0.0148926H9.50501C6.70001 0.0148926 4.83004 0.0698924 3.89504 0.179892C2.63004 0.289892 1.75001 0.619892 1.25501 1.05989C0.815008 1.44489 0.485021 2.15989 0.375021 3.09489C0.320021 3.69989 0.265015 4.96489 0.265015 6.88989V7.16489C0.265015 8.97989 0.320008 10.2449 0.430008 10.8499C0.595008 11.7299 0.870035 12.3899 1.42003 12.7749C1.97004 13.2149 2.90502 13.4899 4.22502 13.5999C5.16002 13.6549 7.08502 13.7099 10 13.7099H10.385C13.19 13.7099 15.06 13.6549 15.995 13.5449C17.26 13.4349 18.14 13.1049 18.635 12.6649C19.075 12.2799 19.405 11.5649 19.515 10.6299C19.57 10.0249 19.625 8.75989 19.625 6.83489V6.55989C19.625 4.74489 19.57 3.47989 19.46 2.87489C19.295 1.99489 19.02 1.33489 18.47 0.949892C17.92 0.509892 16.985 0.234892 15.665 0.124892ZM13.52 6.88989L7.47004 10.5199V3.25989L13.52 6.88989Z" fill="#F6F5EF"/>
</svg>
